<?xml version="1.0" ?><!DOCTYPE svg  PUBLIC '-//W3C//DTD SVG 1.1//EN'  'http://www.w3.org/Graphics/SVG/1.1/DTD/svg11.dtd'><svg height="100%" style="shape-rendering:geometricPrecision; text-rendering:geometricPrecision; image-rendering:optimizeQuality; fill-rule:evenodd; clip-rule:evenodd" viewBox="0 0 186268 186268" width="100%" xml:space="preserve" xmlns="http://www.w3.org/2000/svg" xmlns:xlink="http://www.w3.org/1999/xlink"><defs><style type="text/css">
   <![CDATA[
    .fil0 {fill:#191919}
    .fil1 {fill:white;fill-rule:nonzero}
   ]]>
  </style></defs><g id="图层_x0020_1"><circle class="fil0" r="71961" transform="matrix(3.42771E-014 -1.29423 1.29423 3.42771E-014 93134 93134)"/><g id="_111097904"><path class="fil1" d="M80917 47055c2393,344 4696,968 6874,1837l2255 -3902c1202,-2076 3860,-2784 5936,-1582 2076,1202 2784,3860 1582,5936l-2249 3892c946,745 1847,1546 2697,2396 820,820 1594,1689 2316,2599l3974 -2296c2076,-1202 4734,-494 5936,1582 1202,2076 494,4734 -1582,5936l-3953 2284c869,2152 1498,4428 1854,6792l4635 0c2404,0 4354,1950 4354,4354 0,2404 -1950,4354 -4354,4354l-4578 0c-325,2369 -923,4652 -1763,6814l4006 2315c2076,1202 2784,3860 1582,5936 -1202,2076 -3860,2784 -5936,1582l-3927 -2270c-793,1026 -1650,2000 -2565,2915 -755,755 -1550,1469 -2381,2142l2283 3953c1202,2076 494,4734 -1582,5936 -2076,1202 -4734,494 -5936,-1582l-2231 -3863c-2166,898 -4460,1552 -6845,1928l0 4470c0,2404 -1950,4354 -4354,4354 -2404,0 -4354,-1950 -4354,-4354l0 -4355c-2414,-315 -4740,-914 -6942,-1764l-2188 3784c-1202,2076 -3860,2784 -5936,1582 -2076,-1202 -2784,-3860 -1582,-5936l2132 -3688c-1045,-805 -2036,-1675 -2967,-2606l-7 -7 -7 7c-773,-773 -1506,-1588 -2192,-2441l-3713 2144c-2076,1192 -4727,477 -5919,-1599 -1192,-2076 -477,-4727 1599,-5919l3616 -2087c-911,-2210 -1569,-4552 -1936,-6988l-4235 0c-2404,0 -4354,-1950 -4354,-4354 0,-2404 1950,-4354 4354,-4354l4176 0c333,-2439 958,-4787 1836,-7006l-3677 -2124c-2076,-1202 -2784,-3860 -1582,-5936 1202,-2076 3860,-2784 5936,-1582l3647 2106c759,-969 1575,-1890 2444,-2759 839,-839 1727,-1629 2659,-2365l-2158 -3738c-1192,-2076 -477,-4727 1599,-5919 2076,-1192 4727,-477 5919,1599l2141 3709c2196,-882 4520,-1514 6935,-1861l0 -4400c0,-2404 1950,-4354 4354,-4354 2404,0 4354,1950 4354,4354l0 4399zm-27431 30056l4 175 -1 122c87,6241 2652,11885 6757,15990l-7 7c4175,4170 9948,6752 16325,6752 6370,0 12139,-2584 16315,-6760 4176,-4176 6760,-9945 6760,-16315 0,-6371 -2584,-12143 -6759,-16318 -4175,-4176 -9946,-6761 -16316,-6761 -6372,0 -12142,2584 -16318,6760 -4175,4176 -6760,9948 -6760,16319l0 29z" id="_111100568"/><path class="fil1" d="M125136 99670c2662,552 5146,1599 7351,3042l1504 -1504c1700,-1700 4458,-1700 6158,0 1700,1700 1700,4458 0,6158l-1481 1481c1439,2174 2492,4626 3061,7258l2205 0c2404,0 4354,1950 4354,4354 0,2404 -1950,4354 -4354,4354l-2123 0c-520,2645 -1527,5115 -2923,7314l1543 1543c1700,1700 1700,4458 0,6158 -1700,1700 -4458,1700 -6158,0l-1451 -1451c-2177,1484 -4641,2579 -7288,3181l0 2054c0,2404 -1950,4354 -4354,4354 -2404,0 -4354,-1950 -4354,-4354l0 -1888c-2723,-508 -5265,-1532 -7521,-2965l-1334 1335c-1691,1700 -4441,1708 -6141,17 -1700,-1691 -1708,-4441 -17,-6141l1257 -1258c-1526,-2236 -2641,-4772 -3234,-7499l-1807 0c-2404,0 -4354,-1950 -4354,-4354 0,-2404 1950,-4354 4354,-4354l1723 0c540,-2738 1604,-5292 3084,-7552l-1305 -1305c-1700,-1700 -1700,-4458 0,-6158 1700,-1700 4458,-1700 6158,0l1281 1281c2229,-1474 4750,-2544 7458,-3103l0 -1962c0,-2404 1950,-4354 4354,-4354 2404,0 4354,1950 4354,4354l0 1964zm5668 10951c-2555,-2555 -6099,-4138 -10022,-4138 -3914,0 -7459,1588 -10023,4152l-7 -7 -7 7c-2557,2556 -4139,6100 -4139,10022 0,3841 1517,7318 3981,9861l172 161c2564,2564 6109,4152 10023,4152 3838,0 7314,-1516 9856,-3974l166 -178c2564,-2564 4152,-6109 4152,-10022 0,-3913 -1588,-7458 -4152,-10022l7 -7 -7 -7z" id="_111101312"/></g></g></svg>