<?xml version="1.0" ?><!DOCTYPE svg  PUBLIC '-//W3C//DTD SVG 1.1//EN'  'http://www.w3.org/Graphics/SVG/1.1/DTD/svg11.dtd'><svg height="100%" style="shape-rendering:geometricPrecision; text-rendering:geometricPrecision; image-rendering:optimizeQuality; fill-rule:evenodd; clip-rule:evenodd" viewBox="0 0 186268 186268" width="100%" xml:space="preserve" xmlns="http://www.w3.org/2000/svg" xmlns:xlink="http://www.w3.org/1999/xlink"><defs><style type="text/css">
   <![CDATA[
    .fil0 {fill:#191919}
    .fil1 {fill:white}
   ]]>
  </style></defs><g id="图层_x0020_1"><circle class="fil0" cx="93134" cy="93134" r="93134"/><g id="_112397248"><path class="fil1" d="M134535 38105c7496,0 13628,6133 13628,13628l0 0c0,7496 -6132,13628 -13628,13628 -27600,0 -55203,0 -82803,0 -7495,0 -13627,-6132 -13627,-13628l0 0c0,-7495 6132,-13628 13627,-13628 27600,0 55203,0 82803,0z" id="_112386280"/><path class="fil1" d="M134535 79396c7496,0 13628,6133 13628,13628l0 0c0,7496 -6132,13628 -13628,13628 -27600,0 -55203,0 -82803,0 -7495,0 -13627,-6132 -13627,-13628l0 0c0,-7495 6132,-13628 13627,-13628 27600,0 55203,0 82803,0z" id="_112390336"/><path class="fil1" d="M134535 120907c7496,0 13628,6133 13628,13628l0 0c0,7496 -6132,13628 -13628,13628 -27600,0 -55203,0 -82803,0 -7495,0 -13627,-6132 -13627,-13628l0 0c0,-7495 6132,-13628 13627,-13628 27600,0 55203,0 82803,0z" id="_112389400"/></g></g></svg>